Patient4_TMGait_0pt4_03_right_24_EMG.mot
version=1
nRows=23
nColumns=33
inDegrees=no
endheader
time	1LAddLong	2LGlutMax	3LGlutMed	4LIliopsoas	5LSemiMemb	6LBicFemLong	7LRecFem	8LVastMed	9LVastLat	10LGasMed	11LTibAnt	12lTibPost	13LPeroneusLong	14LSol	15LExtDigLong	16LFlexDigLong	17RAddLong	18RGlutMax	19RGlutMed	20RIliopsoas	21RSemiMemb	22RBicFemLong	23RRecFem	24RVastMed	25RVastLat	26RGasMed	27RTibAnt	28RTibPost	29RPeroneusLong	30RSol	31RExtDigLong	32RFlexDigLong
31.79	-0.000305	-0.093536	-0.040436	-0.003052	-0.005035	0.21576	-0.0914	0.018005	-0.033264	0.046997	-0.00946	-0.001068	-0.000458	0.040741	0.01358	0.015717	0.032196	0.15427	0.24307	-0.010223	-0.18051	-0.1561	-0.24414	-0.089111	-0.005798	0.016937	0.045929	0.18372	0.20172	0.82565	0.003204	-0.025177
31.791	-0.010986	-0.061035	-0.054626	0.006714	-0.010223	0.20645	-0.083923	0.013123	-0.073853	0.002747	-0.008698	0.009918	-0.06073	0.030975	0.006561	0.010376	0.03418	0.18814	0.14908	-0.00824	-0.04715	-0.16815	-0.26169	-0.0177	-0.014038	0.023651	0.028076	0.007477	0.25833	0.24597	-0.000305	-0.013275
31.792	-0.014648	-0.037689	-0.076447	0.018158	-0.003357	0.047913	-0.083466	0.016479	-0.058899	-0.000916	-0.019684	0.008087	0.093079	0.078888	0.024109	0.002441	0.003204	0.19745	0.40451	0.020599	-0.09491	0.006714	-0.28061	0.019684	0.007019	0.051727	0.011902	0.004578	0.25207	-0.24368	0.001831	-0.01297
31.793	-0.017242	0.001373	-0.13672	0.002441	-0.050812	-0.35645	-0.092926	0.001831	0.011444	-0.011444	-0.010529	0.006561	0.28198	0.081482	0.020447	0.003815	-0.017548	0.1947	0.26184	0.004425	-0.27237	0.13275	-0.2565	-0.006866	-0.017395	0.037384	0.009613	-0.020905	0.16602	-0.35034	-0.001526	-0.012512
31.794	-0.017853	-0.006256	-0.11673	0.008698	-0.073853	-0.43243	-0.092468	0.00061	0.03479	0.006409	-0.02121	0.009003	0.62012	0.065002	-0.003052	0.014191	-0.015564	0.20859	0.023499	0.010529	-0.19043	0.13046	-0.23086	-0.018158	-0.008392	0.04776	0.009308	-0.030975	0.059357	-0.26138	0	-0.012512
31.795	-0.01236	-0.00351	-0.061188	0.006714	-0.036011	-0.16693	-0.10941	-0.003052	0.056763	-0.009155	-0.034943	0.002747	0.50201	-0.028534	0.003967	0.003052	-0.013733	0.17578	0.092468	-0.033875	0.005493	0.037384	-0.25681	-0.030212	0.01236	0.046539	0.009155	-0.036774	0.049896	-0.19287	0.00061	-0.013275
31.796	-0.010223	-0.028076	-0.026703	0.007019	-0.002899	-0.037842	-0.10269	-0.002441	0.064392	-0.000458	-0.014496	0.003662	-0.033875	0.024567	0.016174	-0.00885	0.001526	0.17029	0.42877	-0.07309	0.068512	0.004425	-0.25146	-0.015106	0.016937	0.049286	-0.001068	-0.035553	0.21286	-0.002136	0.000305	-0.013733
31.797	-0.008392	-0.013275	-0.005035	0.016937	0.018311	0.097961	-0.035248	0.006256	0.075684	-0.036469	0.00473	0.009003	-0.71518	0.065918	0.023499	0.005035	0.012054	0.1535	0.33722	-0.07431	-0.14038	-0.04303	-0.27756	0.046082	0.021515	0.043335	0.001984	-0.031586	0.096436	0.16419	-0.001984	-0.019226
31.798	-0.002136	-0.013123	0.048065	0.01709	0.039215	0.22522	0.014191	0.00824	0.041199	-0.033875	-0.013428	0.008545	-0.59326	0.087128	-0.016327	-0.011444	0.040131	0.15076	0.2449	-0.081177	0.11902	-0.14206	-0.25894	0.039978	0.023651	0.033875	0.005798	-0.032501	-0.093994	0.076141	-0.004425	-0.023193
31.799	-0.00824	-0.020752	0.033264	0.012665	0.040131	0.26321	0.035858	0.005646	-0.00946	-0.013123	-0.005951	-0.001221	-0.23178	0.054474	-0.13046	0.003052	0.041809	0.1265	0.34759	-0.075226	0.2739	-0.16602	-0.27069	0.068359	0.014954	0.012207	0.00473	-0.028839	-0.010529	0.024109	-0.004272	-0.0177
31.8	-0.004578	0.021515	0.02121	0.003052	0.06134	0.31433	0.068817	0.004883	-0.041199	-0.007324	-0.020142	0.007782	0.11139	0.053711	-0.12314	-0.003052	0.045166	0.17151	0.2681	0.099487	0.13748	-0.15854	-0.22614	0.029907	0.021667	-0.007324	-0.001068	-0.028381	0.054169	0.005798	-0.002289	-0.016937
31.801	-0.010071	0.022583	-0.02243	-0.005646	-0.034332	0.33829	0.005798	0.004883	-0.008087	-0.012512	-0.023651	0.008698	-0.062561	0.13443	-0.064545	0.00473	0.040436	0.14053	0.12772	0.24811	0.063477	-0.12558	-0.27512	-0.024261	-0.002747	-0.02533	0.006409	-0.033264	0.005646	0.073242	-0.002747	-0.019836
31.802	-0.007629	0.007324	0.002747	-0.007629	-0.14389	0.13092	-0.030212	-0.001221	0.00885	-0.001373	-0.025177	0.014038	-0.14877	0.14389	-0.052185	-0.003052	0.052643	0.086212	0.14236	0.12772	-0.034027	-0.059204	-0.28595	-0.047302	0.01358	-0.037689	0.019379	-0.033875	-0.044403	-0.001526	-0.003052	-0.028992
31.803	-0.010986	0.054779	-0.004883	0.008392	-0.11612	-0.10239	-0.004578	0.005341	-0.056458	-0.011749	-0.017548	0.010681	-0.019836	0.15076	0.001831	0.000305	0.054626	0.066681	0.26337	0.010376	-0.13626	-0.046844	-0.27191	-0.046844	0.006256	-0.047607	-0.007477	-0.030365	0.056	-0.19928	-0.001984	-0.029144
31.804	-0.005646	0.079346	-0.016632	0.011902	0.005646	-0.15762	-0.054779	0.009155	-0.098419	-0.01236	0.003357	0.014343	-0.033875	0.11063	0.020905	-0.015717	0.002594	0.091248	0.22873	-0.018311	-0.25314	0.0354	-0.29175	0.003052	-0.003967	-0.083466	-0.010681	-0.047455	0.14877	-0.27039	-0.00061	-0.025787
31.805	-0.007324	0.13382	-0.029144	0.020294	0.10727	-0.21713	-0.094147	0.003204	-0.036011	-0.043182	0.011902	0.012512	-0.066986	0.13016	0.015564	-0.015717	-0.01297	0.10269	0.19211	0.036011	-0.10986	0.11139	-0.29282	0.019073	-0.009155	-0.065002	-0.005951	-0.070648	0.12222	-0.28229	-0.001831	-0.032654
31.806	0.002747	0.13992	-0.040588	0.009155	0.20996	-0.36087	-0.06485	0.00946	0.031891	-0.046997	0.009613	0.016022	-0.029602	0.11169	-0.011444	-0.00824	-0.015259	0.13046	0.20798	0.056458	-0.19867	0.13336	-0.29526	-0.011139	0.011139	-0.03479	-0.020447	-0.074005	0.15793	-0.50323	-0.00412	-0.038147
31.807	0.001373	0.10422	-0.063934	0.003052	0.13367	-0.16815	-0.040131	0.01297	0.059509	-0.041504	0.011292	0.015106	-0.03067	0.099945	-0.018921	-0.033722	-0.023804	0.071259	0.25879	0.03952	0.034332	0.13916	-0.26032	0.023041	-0.007019	-0.063324	-0.01236	-0.044098	0.021057	-0.44327	-0.003967	-0.036163
31.808	-0.00946	0.11231	-0.027771	0.008392	0.00946	-0.001984	-0.092316	0.016632	0.043335	-0.05127	-0.028839	0.016937	-0.067749	0.12894	-0.015717	-0.014191	-0.038757	0.076904	0.33066	0.042572	0.1831	0.095062	-0.27481	0.06073	-0.012054	0.024109	-0.008545	-0.072021	-0.026093	-0.088959	-0.007172	-0.033417
31.809	0.009308	0.12238	0.052338	0.009155	0.039825	-0.19012	-0.15503	-0.026855	0.000153	-0.045166	-0.042877	0.012512	-0.085297	0.11932	-0.016327	-0.041046	-0.030975	0.10895	0.2739	-0.021973	0.12604	0.094299	-0.23178	0.029755	-0.034332	0.077667	0.000305	0.22263	-0.14282	0.44388	-0.002747	-0.029755
31.81	0.014496	0.099792	0.037231	0.007935	0.094147	-0.18082	-0.10239	0.00412	-0.08606	-0.056152	-0.030823	0.007172	-0.089722	0.1236	-0.028076	-0.037079	-0.006561	0.06485	0.23132	-0.000153	-0.003815	0.10971	-0.20844	-0.020294	-0.023041	0.027618	0.002136	0.16907	-0.32227	0.62164	-0.001526	-0.02243
31.811	0.009003	0.0177	0.039978	0.016022	0.075531	-0.088196	-0.17868	0.010834	-0.072632	-0.066681	-0.023956	0.011292	-0.089111	0.15213	-0.013733	-0.02655	-0.005188	0.075989	0.18387	-0.037994	-0.12817	0.12238	-0.23605	0.021667	-0.007019	-0.031433	-0.02121	0.072784	-0.22751	0.49805	-0.000458	-0.022583
31.812	0.005035	-0.014191	0.023346	0.010986	0.018616	-0.011139	-0.22293	-0.006104	0.003967	-0.071106	-0.014038	0.006561	-0.072479	0.13748	-0.00824	-0.018005	-0.005493	0.060425	0.19745	-0.0354	0.041504	0.003662	-0.25131	0.020294	-0.012054	0.009155	-0.006256	-0.27329	0.11932	-0.02121	0.001221	-0.02182
